<?xml version="1.0" encoding="UTF-8" standalone="no"?>
<!-- Created with Inkscape (http://www.inkscape.org/) -->

<svg
   xmlns:dc="http://purl.org/dc/elements/1.1/"
   xmlns:cc="http://creativecommons.org/ns#"
   xmlns:rdf="http://www.w3.org/1999/02/22-rdf-syntax-ns#"
   xmlns:svg="http://www.w3.org/2000/svg"
   xmlns="http://www.w3.org/2000/svg"
   xmlns:sodipodi="http://sodipodi.sourceforge.net/DTD/sodipodi-0.dtd"
   xmlns:inkscape="http://www.inkscape.org/namespaces/inkscape"
   version="1.1"
   id="svg2"
   width="550"
   height="200"
   viewBox="0 0 550 200"
   sodipodi:docname="airotek-logo.svg"
   inkscape:version="0.92pre2 r">
  <metadata
     id="metadata8">
    <rdf:RDF>
      <cc:Work
         rdf:about="">
        <dc:format>image/svg+xml</dc:format>
        <dc:type
           rdf:resource="http://purl.org/dc/dcmitype/StillImage" />
        <dc:title></dc:title>
      </cc:Work>
    </rdf:RDF>
  </metadata>
  <defs
     id="defs6" />
  <sodipodi:namedview
     pagecolor="#ffffff"
     bordercolor="#666666"
     borderopacity="1"
     objecttolerance="10"
     gridtolerance="10"
     guidetolerance="10"
     inkscape:pageopacity="0"
     inkscape:pageshadow="2"
     inkscape:window-width="1366"
     inkscape:window-height="704"
     id="namedview4"
     showgrid="false"
     scale-x="1"
     inkscape:zoom="1.248"
     inkscape:cx="269.45068"
     inkscape:cy="99.875718"
     inkscape:window-x="0"
     inkscape:window-y="27"
     inkscape:window-maximized="1"
     inkscape:current-layer="layer1" />
  <path
     style="fill:#9ac900;fill-opacity:1;stroke:none;stroke-width:1.10181499px;stroke-linecap:butt;stroke-linejoin:miter;stroke-opacity:1"
     d="m 486.23728,44.314103 25.07554,-13.063093 1.0703,4.619874 1.52899,7.487382 0.86809,5.51829 1.40551,6.533487 11.83873,0.394263 c -0.0509,13.54013 -0.29108,26.764264 -8.53148,37.496389 -4.75502,3.163724 -9.70307,5.885631 -14.83126,8.363565 l -1.60544,1.11514 -2.98154,4.54022 -9.70912,12.98345 6.95693,10.27522 -7.64497,7.08912 -17.27765,15.21372 -24.92263,0.0797 -18.34794,8.04498 -3.36379,12.66483 -31.80555,0.0544 c -7.26073,-0.27787 -10.23006,-13.52119 -15.13459,-19.48972 l -7.26275,-5.57571 C 354.09834,119.04496 350.40933,78.546425 380.27795,47.10203 l 8.94463,-7.407729 c -16.28378,15.13407 -42.32901,89.239579 30.1212,96.380129 38.41917,-0.3363 76.36838,-47.071907 66.89355,-91.760254 z"
     id="path4470"
     inkscape:connector-curvature="0"
     sodipodi:nodetypes="cccccccccccccccccccccccccc" />
  <g
     inkscape:groupmode="layer"
     id="layer1"
     inkscape:label="Logo">
    <path
       style="fill:#faca00;fill-opacity:1;stroke:none;stroke-width:1.09604084px;stroke-linecap:butt;stroke-linejoin:miter;stroke-opacity:1"
       d="m 447.21369,96.988163 -7.40393,-9.740311 C 409.385,104.97035 391.02292,79.279167 411.60654,54.706359 c -35.64342,32.337551 3.79177,64.746611 35.60715,42.281804 z"
       id="path4473"
       inkscape:connector-curvature="0"
       sodipodi:nodetypes="cccc" />
    <path
       sodipodi:nodetypes="cccc"
       inkscape:connector-curvature="0"
       id="path4475"
       d="M 472.03868,55.702565 453.31106,63.45054 C 451.84879,28.682492 394.50713,29.358792 388.08812,80.717455 378.21178,39.323576 463.2741,-3.511608 472.03868,55.702565 Z"
       style="fill:#9ac900;fill-opacity:1;stroke:none;stroke-width:1.09604084px;stroke-linecap:butt;stroke-linejoin:miter;stroke-opacity:1" />
  </g>
  <flowRoot
     xml:space="preserve"
     id="flowRoot4477"
     style="font-style:normal;font-weight:normal;font-size:40px;line-height:25px;font-family:sans-serif;letter-spacing:0px;word-spacing:0px;fill:#000000;fill-opacity:1;stroke:none;stroke-width:1px;stroke-linecap:butt;stroke-linejoin:miter;stroke-opacity:1"><flowRegion
       id="flowRegion4479"><rect
         id="rect4481"
         width="317.2915"
         height="69.690811"
         x="4.5327358"
         y="27.756041" /></flowRegion><flowPara
       id="flowPara4483"></flowPara></flowRoot>  <g
     inkscape:groupmode="layer"
     id="layer2"
     inkscape:label="Title">
    <g
       aria-label="AIROTEK"
       transform="translate(18)"
       style="font-style:normal;font-weight:normal;font-size:40px;line-height:25px;font-family:sans-serif;letter-spacing:0px;word-spacing:0px;fill:#000000;fill-opacity:1;stroke:none;stroke-width:1px;stroke-linecap:butt;stroke-linejoin:miter;stroke-opacity:1"
       id="flowRoot4486">
      <path
         d="M 30.620442,45.792969 20.630859,72.88151 h 20.015624 z m -4.15625,-7.255208 h 8.348958 l 20.744791,54.43229 h -7.65625 L 42.943358,79.00651 H 18.406901 L 13.448567,92.970051 H 5.6829427 Z"
         style="font-size:74.66666412px"
         id="path4551" />
      <path
         d="m 63.469398,38.537761 h 7.364583 v 54.43229 h -7.364583 z"
         style="font-size:74.66666412px"
         id="path4553" />
      <path
         d="m 111.30273,67.449219 q 2.36979,0.802083 4.59375,3.427083 2.26042,2.625 4.52084,7.21875 l 7.47395,14.874999 h -7.91145 L 113.01627,79.00651 q -2.69791,-5.46875 -5.24999,-7.255208 -2.51563,-1.786458 -6.89063,-1.786458 h -8.020833 v 23.005207 h -7.364583 v -54.43229 h 16.624996 q 9.33334,0 13.92709,3.901042 4.59375,3.901041 4.59375,11.776041 0,5.140625 -2.40625,8.53125 -2.3698,3.390625 -6.92709,4.703125 z M 92.854817,44.589844 V 63.91276 h 9.260413 q 5.32292,0 8.02084,-2.442708 2.73437,-2.479166 2.73437,-7.255208 0,-4.776041 -2.73437,-7.182291 -2.69792,-2.442709 -8.02084,-2.442709 z"
         style="font-size:74.66666412px"
         id="path4555" />
      <path
         d="m 159.50064,43.532553 q -8.02083,0 -12.76042,5.979166 -4.70312,5.979167 -4.70312,16.296875 0,10.281249 4.70312,16.260416 4.73959,5.979166 12.76042,5.979166 8.02083,0 12.6875,-5.979166 4.70312,-5.979167 4.70312,-16.260416 0,-10.317708 -4.70312,-16.296875 -4.66667,-5.979166 -12.6875,-5.979166 z m 0,-5.979167 q 11.44792,0 18.30208,7.692708 6.85417,7.65625 6.85417,20.5625 0,12.869791 -6.85417,20.562499 -6.85416,7.65625 -18.30208,7.65625 -11.48437,0 -18.375,-7.65625 -6.85417,-7.65625 -6.85417,-20.562499 0,-12.90625 6.85417,-20.5625 6.89063,-7.692708 18.375,-7.692708 z"
         style="font-size:74.66666412px"
         id="path4557" />
      <path
         d="m 188.63086,38.537761 h 46.04687 v 6.197917 h -19.32291 v 48.234373 h -7.40104 V 44.735678 h -19.32292 z"
         style="font-size:74.66666412px"
         id="path4559" />
      <path
         d="m 241.82356,38.537761 h 34.41667 v 6.197917 h -27.05208 v 16.114583 h 25.92187 v 6.197916 h -25.92187 v 19.723958 h 27.70833 v 6.197916 h -35.07292 z"
         style="font-size:74.66666412px"
         id="path4561" />
      <path
         d="m 289.07355,38.537761 h 7.36458 v 23.005208 l 24.42708,-23.005208 h 9.47917 l -27.01563,25.374999 28.94792,29.057291 h -9.69792 L 296.43813,66.75651 v 26.213541 h -7.36458 z"
         style="font-size:74.66666412px"
         id="path4563" />
    </g>
    <g
       aria-label="ENGINEERING"
       transform="translate(16)"
       style="font-style:normal;font-weight:normal;font-size:40px;line-height:25px;font-family:sans-serif;letter-spacing:0px;word-spacing:0px;fill:#000000;fill-opacity:1;stroke:none;stroke-width:1px;stroke-linecap:butt;stroke-linejoin:miter;stroke-opacity:1"
       id="flowRoot4496">
      <path
         d="M 9.2441406,98.755859 H 31.369141 v 3.984371 H 13.978516 v 10.35938 h 16.664062 v 3.98437 H 13.978516 v 12.67969 h 17.8125 v 3.98438 H 9.2441406 Z"
         style="font-size:48px"
         id="path4566" />
      <path
         d="m 39.619141,98.755859 h 6.375 L 61.509766,128.0293 V 98.755859 h 4.59375 v 34.992191 h -6.375 L 44.212891,104.47461 v 29.27344 h -4.59375 z"
         style="font-size:48px"
         id="path4568" />
      <path
         d="m 99.384766,128.75586 v -9.39844 h -7.734375 v -3.89062 h 12.421879 v 15.02343 q -2.74219,1.94532 -6.046879,2.95313 -3.304688,0.98437 -7.054688,0.98437 -8.203125,0 -12.84375,-4.78125 -4.617187,-4.80468 -4.617187,-13.35937 0,-8.57813 4.617187,-13.35938 4.640625,-4.804684 12.84375,-4.804684 3.421875,0 6.492188,0.84375 3.093749,0.84375 5.695309,2.484374 v 5.03906 q -2.625,-2.22656 -5.578122,-3.35156 -2.953125,-1.125 -6.210937,-1.125 -6.421875,0 -9.65625,3.58594 -3.210938,3.58594 -3.210938,10.6875 0,7.07812 3.210938,10.66406 3.234375,3.58594 9.65625,3.58594 2.507812,0 4.476562,-0.42188 1.96875,-0.44531 3.539063,-1.35937 z"
         style="font-size:48px"
         id="path4570" />
      <path
         d="m 112.74414,98.755859 h 4.73438 v 34.992191 h -4.73438 z"
         style="font-size:48px"
         id="path4572" />
      <path
         d="m 126.90039,98.755859 h 6.375 L 148.79102,128.0293 V 98.755859 h 4.59375 v 34.992191 h -6.375 l -15.51563,-29.27344 v 29.27344 h -4.59375 z"
         style="font-size:48px"
         id="path4574" />
      <path
         d="m 162.80664,98.755859 h 22.125 v 3.984371 h -17.39062 v 10.35938 h 16.66406 v 3.98437 h -16.66406 v 12.67969 h 17.8125 v 3.98438 h -22.54688 z"
         style="font-size:48px"
         id="path4576" />
      <path
         d="m 193.18164,98.755859 h 22.125 v 3.984371 h -17.39062 v 10.35938 h 16.66406 v 3.98437 h -16.66406 v 12.67969 h 17.8125 v 3.98438 h -22.54688 z"
         style="font-size:48px"
         id="path4578" />
      <path
         d="m 240.15039,117.3418 q 1.52344,0.51562 2.95313,2.20312 1.45312,1.6875 2.90625,4.64063 l 4.80468,9.5625 h -5.08593 l -4.47657,-8.97657 q -1.73437,-3.51562 -3.375,-4.66406 -1.61718,-1.14844 -4.42968,-1.14844 h -5.15625 v 14.78907 h -4.73438 V 98.755859 h 10.6875 q 6,0 8.95313,2.507811 2.95312,2.50781 2.95312,7.57031 0,3.30469 -1.54687,5.48438 -1.52344,2.17969 -4.45313,3.02344 z m -11.85937,-14.69532 v 12.42188 h 5.95312 q 3.42188,0 5.15625,-1.57031 1.75781,-1.59375 1.75781,-4.66407 0,-3.07031 -1.75781,-4.61718 -1.73437,-1.57032 -5.15625,-1.57032 z"
         style="font-size:48px"
         id="path4580" />
      <path
         d="m 256.93164,98.755859 h 4.73438 v 34.992191 h -4.73438 z"
         style="font-size:48px"
         id="path4582" />
      <path
         d="m 271.08789,98.755859 h 6.375 L 292.97852,128.0293 V 98.755859 h 4.59375 v 34.992191 h -6.375 l -15.51563,-29.27344 v 29.27344 h -4.59375 z"
         style="font-size:48px"
         id="path4584" />
      <path
         d="m 330.85352,128.75586 v -9.39844 h -7.73438 v -3.89062 h 12.42188 v 15.02343 q -2.74219,1.94532 -6.04688,2.95313 -3.30469,0.98437 -7.05469,0.98437 -8.20312,0 -12.84375,-4.78125 -4.61718,-4.80468 -4.61718,-13.35937 0,-8.57813 4.61718,-13.35938 4.64063,-4.804684 12.84375,-4.804684 3.42188,0 6.49219,0.84375 3.09375,0.84375 5.69531,2.484374 v 5.03906 q -2.625,-2.22656 -5.57812,-3.35156 -2.95313,-1.125 -6.21094,-1.125 -6.42187,0 -9.65625,3.58594 -3.21094,3.58594 -3.21094,10.6875 0,7.07812 3.21094,10.66406 3.23438,3.58594 9.65625,3.58594 2.50781,0 4.47656,-0.42188 1.96875,-0.44531 3.53907,-1.35937 z"
         style="font-size:48px"
         id="path4586" />
    </g>
  </g>
  <g
     inkscape:groupmode="layer"
     id="layer3"
     inkscape:label="Slogan">
    <g
       aria-label="CONTROLLED COMFORT"
       transform="translate(20,10)"
       style="font-style:normal;font-weight:normal;font-size:40px;line-height:25px;font-family:sans-serif;letter-spacing:0px;word-spacing:0px;fill:#000000;fill-opacity:1;stroke:none;stroke-width:1px;stroke-linecap:butt;stroke-linejoin:miter;stroke-opacity:1"
       id="flowRoot4505">
      <path
         d="m 22.274088,149.98893 v 2.77344 q -1.328125,-1.23698 -2.838541,-1.84896 -1.497396,-0.61198 -3.190105,-0.61198 -3.333333,0 -5.104166,2.04427 -1.7708334,2.03125 -1.7708334,5.88542 0,3.84115 1.7708334,5.88542 1.770833,2.03125 5.104166,2.03125 1.692709,0 3.190105,-0.61198 1.510416,-0.61198 2.838541,-1.84896 v 2.74739 q -1.380208,0.9375 -2.929687,1.40625 -1.536459,0.46875 -3.255209,0.46875 -4.414062,0 -6.9531244,-2.69531 -2.5390624,-2.70833 -2.5390624,-7.38281 0,-4.6875 2.5390624,-7.38281 2.5390624,-2.70834 6.9531244,-2.70834 1.744792,0 3.28125,0.46875 1.549479,0.45573 2.903646,1.38021 z"
         style="font-size:26.66666603px"
         id="path4589" />
      <path
         d="m 34.253254,150.27539 q -2.864584,0 -4.557292,2.13542 -1.679687,2.13541 -1.679687,5.82031 0,3.67187 1.679687,5.80729 1.692708,2.13542 4.557292,2.13542 2.864583,0 4.53125,-2.13542 1.679687,-2.13542 1.679687,-5.80729 0,-3.6849 -1.679687,-5.82031 -1.666667,-2.13542 -4.53125,-2.13542 z m 0,-2.13542 q 4.088541,0 6.536458,2.7474 2.447916,2.73438 2.447916,7.34375 0,4.59635 -2.447916,7.34375 -2.447917,2.73437 -6.536458,2.73437 -4.101563,0 -6.5625,-2.73437 -2.447917,-2.73438 -2.447917,-7.34375 0,-4.60937 2.447917,-7.34375 2.460937,-2.7474 6.5625,-2.7474 z"
         style="font-size:26.66666603px"
         id="path4591" />
      <path
         d="m 47.352211,148.49154 h 3.541667 l 8.619791,16.26302 v -16.26302 h 2.552083 v 19.4401 h -3.541666 l -8.619792,-16.26302 v 16.26302 h -2.552083 z"
         style="font-size:26.66666603px"
         id="path4593" />
      <path
         d="m 64.604813,148.49154 h 16.445312 v 2.21354 h -6.901042 v 17.22656 h -2.643229 v -17.22656 h -6.901041 z"
         style="font-size:26.66666603px"
         id="path4595" />
      <path
         d="m 92.820961,158.81706 q 0.846354,0.28646 1.640625,1.22396 0.807291,0.9375 1.614583,2.57812 l 2.669271,5.3125 h -2.825521 l -2.486979,-4.98698 q -0.963542,-1.95312 -1.875,-2.59114 -0.898438,-0.63803 -2.460938,-0.63803 h -2.864583 v 8.21615 h -2.630208 v -19.4401 h 5.9375 q 3.333333,0 4.973958,1.39323 1.640625,1.39323 1.640625,4.20573 0,1.83593 -0.859375,3.04687 -0.846354,1.21094 -2.473958,1.67969 z M 86.232419,150.653 v 6.90104 h 3.307292 q 1.901041,0 2.864583,-0.8724 0.976563,-0.88542 0.976563,-2.59114 0,-1.70573 -0.976563,-2.56511 -0.963542,-0.87239 -2.864583,-0.87239 z"
         style="font-size:26.66666603px"
         id="path4597" />
      <path
         d="m 110.0345,150.27539 q -2.86458,0 -4.55729,2.13542 -1.67969,2.13541 -1.67969,5.82031 0,3.67187 1.67969,5.80729 1.69271,2.13542 4.55729,2.13542 2.86458,0 4.53125,-2.13542 1.67969,-2.13542 1.67969,-5.80729 0,-3.6849 -1.67969,-5.82031 -1.66667,-2.13542 -4.53125,-2.13542 z m 0,-2.13542 q 4.08854,0 6.53646,2.7474 2.44791,2.73438 2.44791,7.34375 0,4.59635 -2.44791,7.34375 -2.44792,2.73437 -6.53646,2.73437 -4.10156,0 -6.5625,-2.73437 -2.44792,-2.73438 -2.44792,-7.34375 0,-4.60937 2.44792,-7.34375 2.46094,-2.7474 6.5625,-2.7474 z"
         style="font-size:26.66666603px"
         id="path4599" />
      <path
         d="m 123.13345,148.49154 h 2.63021 v 17.22656 h 9.46615 v 2.21354 h -12.09636 z"
         style="font-size:26.66666603px"
         id="path4601" />
      <path
         d="m 137.9772,148.49154 h 2.63021 v 17.22656 h 9.46615 v 2.21354 H 137.9772 Z"
         style="font-size:26.66666603px"
         id="path4603" />
      <path
         d="m 152.82095,148.49154 h 12.29167 v 2.21354 h -9.66146 v 5.75521 h 9.25781 v 2.21354 h -9.25781 v 7.04427 h 9.89583 v 2.21354 h -12.52604 z"
         style="font-size:26.66666603px"
         id="path4605" />
      <path
         d="m 172.32616,150.653 v 15.11718 h 3.17708 q 4.02344,0 5.88542,-1.82291 1.875,-1.82292 1.875,-5.75521 0,-3.90625 -1.875,-5.71615 -1.86198,-1.82291 -5.88542,-1.82291 z m -2.63021,-2.16146 h 5.40365 q 5.65104,0 8.29427,2.35677 2.64323,2.34375 2.64323,7.34375 0,5.02604 -2.65625,7.38281 -2.65625,2.35677 -8.28125,2.35677 h -5.40365 z"
         style="font-size:26.66666603px"
         id="path4607" />
      <path
         d="m 213.26367,149.98893 v 2.77344 q -1.32813,-1.23698 -2.83855,-1.84896 -1.49739,-0.61198 -3.1901,-0.61198 -3.33333,0 -5.10417,2.04427 -1.77083,2.03125 -1.77083,5.88542 0,3.84115 1.77083,5.88542 1.77084,2.03125 5.10417,2.03125 1.69271,0 3.1901,-0.61198 1.51042,-0.61198 2.83855,-1.84896 v 2.74739 q -1.38021,0.9375 -2.92969,1.40625 -1.53646,0.46875 -3.25521,0.46875 -4.41406,0 -6.95312,-2.69531 -2.53907,-2.70833 -2.53907,-7.38281 0,-4.6875 2.53907,-7.38281 2.53906,-2.70834 6.95312,-2.70834 1.74479,0 3.28125,0.46875 1.54948,0.45573 2.90365,1.38021 z"
         style="font-size:26.66666603px"
         id="path4609" />
      <path
         d="m 225.24283,150.27539 q -2.86459,0 -4.55729,2.13542 -1.67969,2.13541 -1.67969,5.82031 0,3.67187 1.67969,5.80729 1.6927,2.13542 4.55729,2.13542 2.86458,0 4.53125,-2.13542 1.67969,-2.13542 1.67969,-5.80729 0,-3.6849 -1.67969,-5.82031 -1.66667,-2.13542 -4.53125,-2.13542 z m 0,-2.13542 q 4.08854,0 6.53646,2.7474 2.44791,2.73438 2.44791,7.34375 0,4.59635 -2.44791,7.34375 -2.44792,2.73437 -6.53646,2.73437 -4.10156,0 -6.5625,-2.73437 -2.44792,-2.73438 -2.44792,-7.34375 0,-4.60937 2.44792,-7.34375 2.46094,-2.7474 6.5625,-2.7474 z"
         style="font-size:26.66666603px"
         id="path4611" />
      <path
         d="m 238.34178,148.49154 h 3.91927 l 4.96094,13.22916 4.98698,-13.22916 h 3.91927 v 19.4401 h -2.5651 v -17.07031 l -5.01303,13.33333 h -2.64322 l -5.01303,-13.33333 v 17.07031 h -2.55208 z"
         style="font-size:26.66666603px"
         id="path4613" />
      <path
         d="m 261.36263,148.49154 h 11.17187 v 2.21354 h -8.54167 v 5.72917 h 7.70834 v 2.21354 h -7.70834 v 9.28385 h -2.6302 z"
         style="font-size:26.66666603px"
         id="path4615" />
      <path
         d="m 284.61783,150.27539 q -2.86459,0 -4.55729,2.13542 -1.67969,2.13541 -1.67969,5.82031 0,3.67187 1.67969,5.80729 1.6927,2.13542 4.55729,2.13542 2.86458,0 4.53125,-2.13542 1.67969,-2.13542 1.67969,-5.80729 0,-3.6849 -1.67969,-5.82031 -1.66667,-2.13542 -4.53125,-2.13542 z m 0,-2.13542 q 4.08854,0 6.53646,2.7474 2.44791,2.73438 2.44791,7.34375 0,4.59635 -2.44791,7.34375 -2.44792,2.73437 -6.53646,2.73437 -4.10156,0 -6.5625,-2.73437 -2.44792,-2.73438 -2.44792,-7.34375 0,-4.60937 2.44792,-7.34375 2.46094,-2.7474 6.5625,-2.7474 z"
         style="font-size:26.66666603px"
         id="path4617" />
      <path
         d="m 306.93555,158.81706 q 0.84635,0.28646 1.64062,1.22396 0.80729,0.9375 1.61458,2.57812 l 2.66928,5.3125 h -2.82553 l -2.48697,-4.98698 q -0.96355,-1.95312 -1.875,-2.59114 -0.89844,-0.63803 -2.46094,-0.63803 h -2.86458 v 8.21615 h -2.63021 v -19.4401 h 5.9375 q 3.33333,0 4.97395,1.39323 1.64063,1.39323 1.64063,4.20573 0,1.83593 -0.85938,3.04687 -0.84635,1.21094 -2.47395,1.67969 z m -6.58854,-8.16406 v 6.90104 h 3.30729 q 1.90104,0 2.86458,-0.8724 0.97656,-0.88542 0.97656,-2.59114 0,-1.70573 -0.97656,-2.56511 -0.96354,-0.87239 -2.86458,-0.87239 z"
         style="font-size:26.66666603px"
         id="path4619" />
      <path
         d="m 311.63605,148.49154 h 16.44531 v 2.21354 h -6.90104 v 17.22656 h -2.64323 v -17.22656 h -6.90104 z"
         style="font-size:26.66666603px"
         id="path4621" />
    </g>
  </g>
</svg>
