<?xml version="1.0" encoding="UTF-8" standalone="no"?>
<svg
   xmlns:dc="http://purl.org/dc/elements/1.1/"
   xmlns:cc="http://creativecommons.org/ns#"
   xmlns:rdf="http://www.w3.org/1999/02/22-rdf-syntax-ns#"
   xmlns:svg="http://www.w3.org/2000/svg"
   xmlns="http://www.w3.org/2000/svg"
   xmlns:xlink="http://www.w3.org/1999/xlink"
   xmlns:sodipodi="http://sodipodi.sourceforge.net/DTD/sodipodi-0.dtd"
   xmlns:inkscape="http://www.inkscape.org/namespaces/inkscape"
   version="1.1"
   id="svg2"
   width="1000"
   height="300"
   viewBox="-50 0 1000 300"
   sodipodi:docname="omega-logo.svg"
   inkscape:version="0.92pre2 r">
  <metadata
     id="metadata8">
    <rdf:RDF>
      <cc:Work
         rdf:about="">
        <dc:format>image/svg+xml</dc:format>
        <dc:type
           rdf:resource="http://purl.org/dc/dcmitype/StillImage" />
        <dc:title />
      </cc:Work>
    </rdf:RDF>
  </metadata>
  <defs
     id="defs6">
    <inkscape:path-effect
       effect="bend_path"
       id="path-effect4517"
       is_visible="true"
       bendpath="M 453.59766,217.35402 H 1125.5559"
       prop_scale="1"
       scale_y_rel="false"
       vertical="false" />
  </defs>
  <sodipodi:namedview
     pagecolor="#ffffff"
     bordercolor="#666666"
     borderopacity="1"
     objecttolerance="10"
     gridtolerance="10"
     guidetolerance="10"
     inkscape:pageopacity="0"
     inkscape:pageshadow="2"
     inkscape:window-width="1366"
     inkscape:window-height="704"
     id="namedview4"
     showgrid="false"
     inkscape:zoom="0.35355339"
     inkscape:cx="225.68024"
     inkscape:cy="-14.258315"
     inkscape:window-x="0"
     inkscape:window-y="27"
     inkscape:window-maximized="1"
     inkscape:current-layer="layer6" />
  <g
     inkscape:groupmode="layer"
     id="layer6"
     inkscape:label="background"
     style="display:none">
    <rect
       style="opacity:1;fill:#000000;fill-opacity:0.80400002;fill-rule:nonzero;stroke:none;stroke-width:30;stroke-linecap:round;stroke-linejoin:round;stroke-miterlimit:4;stroke-dasharray:none;stroke-opacity:1"
       id="rect4553"
       width="1088.4836"
       height="335.75439"
       x="-89.539116"
       y="-16.412838" />
  </g>
  <g
     inkscape:groupmode="layer"
     id="layer2"
     inkscape:label="fire and security"
     style="display:inline">
    <text
       xml:space="preserve"
       style="font-style:normal;font-weight:normal;font-size:40px;line-height:25px;font-family:sans-serif;letter-spacing:0px;word-spacing:0px;fill:#000000;fill-opacity:1;stroke:none;stroke-width:1px;stroke-linecap:butt;stroke-linejoin:miter;stroke-opacity:1"
       x="519"
       y="327"
       id="text4494"><tspan
         sodipodi:role="line"
         id="tspan4492"
         x="519"
         y="349.89062" /></text>
    <g
       aria-label="FIRE AND SECURITY"
       transform="matrix(0.91372042,0,0,1,-432.17195,-64.110896)"
       style="font-style:normal;font-weight:normal;font-size:40px;line-height:25px;font-family:sans-serif;letter-spacing:0px;word-spacing:0px;fill:#000000;fill-opacity:1;stroke:none;stroke-width:1px;stroke-linecap:butt;stroke-linejoin:miter;stroke-opacity:1"
       id="flowRoot4496">
      <path
         d="m 448.76823,273.30339 h 33.82161 v 9.47265 h -21.28906 v 9.04948 h 20.01953 v 9.47266 h -20.01953 v 20.60546 h -12.53255 z"
         style="font-style:normal;font-variant:normal;font-weight:bold;font-stretch:normal;font-size:66.66666412px;font-family:sans-serif;-inkscape-font-specification:'sans-serif Bold'"
         id="path4488" />
      <path
         d="m 494.34114,273.30339 h 12.53255 v 48.60025 h -12.53255 z"
         style="font-style:normal;font-variant:normal;font-weight:bold;font-stretch:normal;font-size:66.66666412px;font-family:sans-serif;-inkscape-font-specification:'sans-serif Bold'"
         id="path4490" />
      <path
         d="m 537.01692,294.85286 q 3.9388,0 5.63151,-1.46484 1.72526,-1.46484 1.72526,-4.81771 0,-3.32031 -1.72526,-4.7526 -1.69271,-1.43229 -5.63151,-1.43229 h -5.27344 v 12.46744 z m -5.27344,8.65886 v 18.39192 h -12.53255 v -48.60025 h 19.14063 q 9.60286,0 14.0625,3.22265 4.49218,3.22266 4.49218,10.1888 0,4.81771 -2.34375,7.91016 -2.31119,3.09245 -6.99869,4.55729 2.57161,0.58594 4.58984,2.66927 2.05078,2.05078 4.13411,6.25 l 6.80339,13.80208 h -13.34635 l -5.92448,-12.07682 q -1.79037,-3.64583 -3.64584,-4.98047 -1.82291,-1.33463 -4.88281,-1.33463 z"
         style="font-style:normal;font-variant:normal;font-weight:bold;font-stretch:normal;font-size:66.66666412px;font-family:sans-serif;-inkscape-font-specification:'sans-serif Bold'"
         id="path4492" />
      <path
         d="m 570.51302,273.30339 h 33.82161 v 9.47265 h -21.28906 v 9.04948 h 20.01953 v 9.47266 h -20.01953 v 11.13281 h 22.00521 v 9.47265 h -34.53776 z"
         style="font-style:normal;font-variant:normal;font-weight:bold;font-stretch:normal;font-size:66.66666412px;font-family:sans-serif;-inkscape-font-specification:'sans-serif Bold'"
         id="path4494" />
      <path
         d="m 668.7552,313.04948 h -19.59636 l -3.09244,8.85416 h -12.59766 l 18.0013,-48.60025 h 14.94141 l 18.0013,48.60025 h -12.59766 z m -16.47136,-9.01693 h 13.3138 l -6.64062,-19.33594 z"
         style="font-style:normal;font-variant:normal;font-weight:bold;font-stretch:normal;font-size:66.66666412px;font-family:sans-serif;-inkscape-font-specification:'sans-serif Bold'"
         id="path4496" />
      <path
         d="m 690.82551,273.30339 h 13.9974 l 17.67578,33.33333 v -33.33333 h 11.88151 v 48.60025 h -13.9974 l -17.67578,-33.33333 v 33.33333 h -11.88151 z"
         style="font-style:normal;font-variant:normal;font-weight:bold;font-stretch:normal;font-size:66.66666412px;font-family:sans-serif;-inkscape-font-specification:'sans-serif Bold'"
         id="path4498" />
      <path
         d="m 759.21744,282.77604 v 29.65495 h 4.49218 q 7.6823,0 11.71875,-3.80859 4.06901,-3.8086 4.06901,-11.06771 0,-7.22656 -4.03645,-11.00261 -4.03646,-3.77604 -11.75131,-3.77604 z m -12.53255,-9.47265 h 13.21614 q 11.06771,0 16.47135,1.59505 5.4362,1.5625 9.3099,5.33854 3.41797,3.28776 5.07812,7.58463 1.66016,4.29688 1.66016,9.73308 0,5.5013 -1.66016,9.83073 -1.66015,4.29687 -5.07812,7.58463 -3.90625,3.77604 -9.375,5.37109 -5.46875,1.5625 -16.40625,1.5625 h -13.21614 z"
         style="font-style:normal;font-variant:normal;font-weight:bold;font-stretch:normal;font-size:66.66666412px;font-family:sans-serif;-inkscape-font-specification:'sans-serif Bold'"
         id="path4500" />
      <path
         d="m 859.02212,274.83333 v 10.28646 q -4.0039,-1.79036 -7.8125,-2.70182 -3.80859,-0.91146 -7.19401,-0.91146 -4.49218,0 -6.64062,1.23698 -2.14844,1.23698 -2.14844,3.84115 0,1.95312 1.43229,3.05989 1.46485,1.07422 5.27344,1.85547 l 5.33854,1.07422 q 8.10547,1.6276 11.52344,4.94792 3.41797,3.32031 3.41797,9.4401 0,8.04036 -4.78516,11.97917 -4.7526,3.90625 -14.55078,3.90625 -4.62239,0 -9.27734,-0.87891 -4.65495,-0.87891 -9.3099,-2.60417 v -10.57942 q 4.65495,2.47395 8.98438,3.74349 4.36198,1.23697 8.39843,1.23697 4.10157,0 6.28256,-1.36718 2.18099,-1.36719 2.18099,-3.90625 0,-2.27865 -1.4974,-3.51563 -1.46484,-1.23698 -5.89193,-2.21354 l -4.85026,-1.07422 q -7.29166,-1.5625 -10.67708,-4.98047 -3.35286,-3.41797 -3.35286,-9.21224 0,-7.25911 4.68749,-11.16536 4.6875,-3.90625 13.47657,-3.90625 4.0039,0 8.23567,0.61849 4.23177,0.58594 8.75651,1.79036 z"
         style="font-style:normal;font-variant:normal;font-weight:bold;font-stretch:normal;font-size:66.66666412px;font-family:sans-serif;-inkscape-font-specification:'sans-serif Bold'"
         id="path4502" />
      <path
         d="M 873.24739,273.30339 H 907.069 v 9.47265 h -21.28906 v 9.04948 h 20.01953 v 9.47266 h -20.01953 v 11.13281 h 22.0052 v 9.47265 h -34.53775 z"
         style="font-style:normal;font-variant:normal;font-weight:bold;font-stretch:normal;font-size:66.66666412px;font-family:sans-serif;-inkscape-font-specification:'sans-serif Bold'"
         id="path4504" />
      <path
         d="m 957.36196,319.23437 q -3.45052,1.79037 -7.19401,2.70183 -3.74349,0.91146 -7.8125,0.91146 -12.14193,0 -19.23828,-6.77084 -7.09636,-6.80338 -7.09636,-18.42448 0,-11.65364 7.09636,-18.42447 7.09635,-6.80339 19.23828,-6.80339 4.06901,0 7.8125,0.91146 3.74349,0.91146 7.19401,2.70182 v 10.05859 q -3.48308,-2.3763 -6.86849,-3.48307 -3.38542,-1.10677 -7.12891,-1.10677 -6.70573,0 -10.54687,4.29688 -3.84115,4.29687 -3.84115,11.84895 0,7.51953 3.84115,11.81641 3.84114,4.29687 10.54687,4.29687 3.74349,0 7.12891,-1.10677 3.38541,-1.10677 6.86849,-3.48307 z"
         style="font-style:normal;font-variant:normal;font-weight:bold;font-stretch:normal;font-size:66.66666412px;font-family:sans-serif;-inkscape-font-specification:'sans-serif Bold'"
         id="path4507" />
      <path
         d="m 967.7786,273.30339 h 12.53256 v 29.13411 q 0,6.02213 1.95312,8.6263 1.98568,2.57162 6.44531,2.57162 4.49219,0 6.44532,-2.57162 1.98567,-2.60417 1.98567,-8.6263 v -29.13411 h 12.53252 v 29.13411 q 0,10.31901 -5.1757,15.36458 -5.17583,5.04558 -15.78781,5.04558 -10.57942,0 -15.7552,-5.04558 -5.17579,-5.04557 -5.17579,-15.36458 z"
         style="font-style:normal;font-variant:normal;font-weight:bold;font-stretch:normal;font-size:66.66666412px;font-family:sans-serif;-inkscape-font-specification:'sans-serif Bold'"
         id="path4509" />
      <path
         d="m 1039.7513,294.85286 q 3.9388,0 5.6315,-1.46484 1.7253,-1.46484 1.7253,-4.81771 0,-3.32031 -1.7253,-4.7526 -1.6927,-1.43229 -5.6315,-1.43229 h -5.2735 v 12.46744 z m -5.2735,8.65886 v 18.39192 h -12.5325 v -48.60025 h 19.1406 q 9.6029,0 14.0625,3.22265 4.4922,3.22266 4.4922,10.1888 0,4.81771 -2.3437,7.91016 -2.3112,3.09245 -6.9987,4.55729 2.5716,0.58594 4.5898,2.66927 2.0508,2.05078 4.1341,6.25 l 6.8034,13.80208 h -13.3464 l -5.9244,-12.07682 q -1.7904,-3.64583 -3.6459,-4.98047 -1.8229,-1.33463 -4.8828,-1.33463 z"
         style="font-style:normal;font-variant:normal;font-weight:bold;font-stretch:normal;font-size:66.66666412px;font-family:sans-serif;-inkscape-font-specification:'sans-serif Bold'"
         id="path4511" />
      <path
         d="m 1073.2474,273.30339 h 12.5325 v 48.60025 h -12.5325 z"
         style="font-style:normal;font-variant:normal;font-weight:bold;font-stretch:normal;font-size:66.66666412px;font-family:sans-serif;-inkscape-font-specification:'sans-serif Bold'"
         id="path4513" />
      <path
         d="m 1092.3229,273.30339 h 44.7917 v 9.47265 h -16.1133 v 39.1276 h -12.5326 v -39.1276 h -16.1458 z"
         style="font-style:normal;font-variant:normal;font-weight:bold;font-stretch:normal;font-size:66.66666412px;font-family:sans-serif;-inkscape-font-specification:'sans-serif Bold'"
         id="path4515" />
      <path
         d="m 1136.789,273.30339 h 13.7044 l 11.0678,17.3177 11.0677,-17.3177 h 13.7369 l -18.5221,28.125 v 20.47525 h -12.5325 v -20.47525 z"
         style="font-style:normal;font-variant:normal;font-weight:bold;font-stretch:normal;font-size:66.66666412px;font-family:sans-serif;-inkscape-font-specification:'sans-serif Bold'"
         id="path4517" />
    </g>
  </g>
  <g
     inkscape:groupmode="layer"
     id="layer1"
     inkscape:label="Omega"
     style="display:inline">
    <g
       aria-label="OMEGA"
       style="font-style:normal;font-weight:normal;font-size:186.66667175px;line-height:142.09997559px;font-family:sans-serif;letter-spacing:-21.89001083px;word-spacing:0px;fill:#000000;fill-opacity:1;stroke:none;stroke-width:1px;stroke-linecap:butt;stroke-linejoin:miter;stroke-opacity:1"
       id="flowRoot4470"
       transform="translate(-482.20519,-83.681241)">
      <path
         d="m 523.59766,172.19126 q -16.04167,0 -24.88281,11.84896 -8.84115,11.84896 -8.84115,33.35938 0,21.41927 8.84115,33.26823 8.84114,11.84895 24.88281,11.84895 16.13281,0 24.97396,-11.84895 8.84114,-11.84896 8.84114,-33.26823 0,-21.51042 -8.84114,-33.35938 -8.84115,-11.84896 -24.97396,-11.84896 z m 0,-25.42969 q 32.8125,0 51.40625,18.77605 18.59375,18.77604 18.59375,51.86198 0,32.99479 -18.59375,51.77083 -18.59375,18.77604 -51.40625,18.77604 -32.72136,0 -51.40625,-18.77604 -18.59375,-18.77604 -18.59375,-51.77083 0,-33.08594 18.59375,-51.86198 18.68489,-18.77605 51.40625,-18.77605 z"
         style="font-style:normal;font-variant:normal;font-weight:bold;font-stretch:normal;font-size:186.66667175px;line-height:142.09997559px;font-family:sans-serif;-inkscape-font-specification:'sans-serif Bold';letter-spacing:-21.89001083px;word-spacing:0.41999993px;fill:#000000"
         id="path4506"
         inkscape:connector-curvature="0" />
      <path
         d="m 598.13993,149.22251 h 44.66146 l 30.98959,72.82552 31.17187,-72.82552 h 44.57032 V 285.30324 H 716.35608 L 717.556,185.572 685.00192,280.944 h -22.23959 l -31.75433,-95.472 0.40016,99.83124 h -33.26823 z"
         style="font-style:normal;font-variant:normal;font-weight:bold;font-stretch:normal;font-size:186.66667175px;line-height:142.09997559px;font-family:sans-serif;-inkscape-font-specification:'sans-serif Bold';letter-spacing:-21.89001083px;word-spacing:0.41999993px;fill:#000000"
         id="path4508"
         inkscape:connector-curvature="0"
         sodipodi:nodetypes="cccccccccccccc" />
      <path
         d="m 762.18742,149.22251 h 94.70052 v 26.52344 h -59.60937 v 25.33854 h 56.05468 v 26.52344 h -56.05468 v 31.17188 h 61.61458 v 26.52343 h -96.70573 z"
         style="font-style:normal;font-variant:normal;font-weight:bold;font-stretch:normal;font-size:186.66667175px;line-height:142.09997559px;font-family:sans-serif;-inkscape-font-specification:'sans-serif Bold';letter-spacing:-21.89001083px;word-spacing:0.41999993px;fill:#000000"
         id="path4510"
         inkscape:connector-curvature="0" />
      <path
         d="m 990.2193,265.386 c -7.5,7.37847 -17.8342,17.24363 -27.2526,19.37037 -9.41841,2.12673 -19.14063,3.1901 -29.16667,3.1901 -22.66493,0 -40.62066,-6.31944 -53.86719,-18.95833 -13.24653,-12.69965 -19.86979,-29.89583 -19.86979,-51.58854 0,-21.93577 6.74479,-39.19271 20.23438,-51.77084 13.48958,-12.57813 31.9618,-18.86719 55.41666,-18.86719 9.05382,0 17.71268,0.8507 25.97657,2.55209 8.32465,1.70139 16.16319,4.22309 23.51562,7.5651 v 28.16406 c -7.59549,-4.31423 -15.16059,-7.53472 -22.69531,-9.66145 -7.47396,-2.12674 -14.9783,-3.19011 -22.51302,-3.19011 -13.97569,0 -24.76128,3.91927 -32.35677,11.75781 -7.53473,7.77778 -11.30209,18.92796 -11.30209,33.45053 0,14.40104 3.64583,25.52083 10.9375,33.35937 7.29167,7.83854 17.65191,11.75781 31.08073,11.75781 3.64583,0 7.01823,-0.21267 10.11719,-0.63802 3.15972,-0.48611 5.98524,-1.21527 8.47656,-2.1875 V 233.25897 H 935.5318 v -23.51562 h 54.6875 z"
         style="font-style:normal;font-variant:normal;font-weight:bold;font-stretch:normal;font-size:186.66667175px;line-height:142.09997559px;font-family:sans-serif;-inkscape-font-specification:'sans-serif Bold';letter-spacing:-21.89001083px;word-spacing:0.41999993px;fill:#000000"
         id="path4512"
         inkscape:connector-curvature="0"
         sodipodi:nodetypes="csscsssccccscsssccccccc" />
      <path
         d="m 1091.7147,260.51158 h -54.8698 l -8.6588,24.79166 h -35.27348 l 50.40368,-136.08073 h 41.8359 l 50.4037,136.08073 h -35.2735 z m -46.1198,-25.2474 h 37.2787 l -18.5938,-54.14063 z"
         style="font-style:normal;font-variant:normal;font-weight:bold;font-stretch:normal;font-size:186.66667175px;line-height:142.09997559px;font-family:sans-serif;-inkscape-font-specification:'sans-serif Bold';letter-spacing:-21.89001083px;word-spacing:0.41999993px;fill:#000000"
         id="path4514"
         inkscape:connector-curvature="0" />
    </g>
  </g>
  <g
     inkscape:groupmode="layer"
     id="layer4"
     inkscape:label="logo">
    <path
       style="fill:#f14300;fill-opacity:1;stroke:none;stroke-width:1px;stroke-linecap:butt;stroke-linejoin:miter;stroke-opacity:1"
       d="m 799.39461,22.235389 c 84.0961,-3.86121 175.7235,120.667661 71.4002,208.833371 l 23.75,-1 9.25,-20.311 26.75,-0.75 -24,46.561 -95.8365,-0.502 c 45.8132,-28.94913 74.6639,-72.06021 68.7662,-141.43782 l 18.5615,-20.859651 -24.9912,0.79947 c -8.6577,-27.7122 -40.3762,-46.20286 -78.75,-47.75 -85.3016,-0.7439 -113.555,108.307991 -56,175.000001 l -13.1464,35.82253 -43.4871,-0.40753 -22.9809,-47.20455 26.5165,0.7071 10.6066,21.27236 22.4506,0.35355 c -99.2618,-84.60247 -17.2763,-213.512111 81.1405,-209.126831 z"
       id="path4522"
       inkscape:connector-curvature="0"
       sodipodi:nodetypes="ccccccccccccccccccc" />
    <path
       style="fill:#f14300;fill-opacity:1;stroke:none;stroke-width:1px;stroke-linecap:butt;stroke-linejoin:miter;stroke-opacity:1"
       d="m 752.79481,234.81876 -7,20.75 35.75,-0.25 c -8.3493,-4.26809 -17.176,-7.96055 -28.75,-20.5 z"
       id="path4524"
       inkscape:connector-curvature="0"
       sodipodi:nodetypes="cccc" />
    <path
       style="fill:#faffff;fill-opacity:1;stroke:none;stroke-width:1px;stroke-linecap:butt;stroke-linejoin:miter;stroke-opacity:1"
       d="m 771.46391,168.42972 14.1421,0.35355 6.364,-8.13173 h -16.9706 l 17.8545,-48.26003 c 1.583,-2.69663 3.1856,-5.36965 7.071,-5.30331 l 44.9013,0.17678 6.7175,-7.954951 h -52.3259 c -4.8293,1.393661 -9.0071,3.569261 -11.4904,7.778171 l -21.5668,53.38657 -18.3658,-0.40601 -6.125,8.325 21.25,0.3 -36.1804,99.61479 c -1.8768,3.39905 -4.1404,5.89541 -7.4246,6.01041 h -30.4056 l -6.364,8.48528 38.007,-0.35355 c 4.7172,-0.73682 8.5955,-2.98362 10.9602,-7.95495 z"
       id="path4526"
       inkscape:connector-curvature="0"
       sodipodi:nodetypes="ccccccccccccccccccccc" />
    <path
       style="fill:#faffff;fill-opacity:1;stroke:none;stroke-width:1px;stroke-linecap:butt;stroke-linejoin:miter;stroke-opacity:1"
       d="m 875.54481,98.568759 -49.25,57.250001 c -2.1718,2.92418 -1.4715,8.6511 2.75,10.75 h 24.25 c 3.3065,0.19569 5.0683,3.72113 4,7 l -93.75,109.35 10,0.15 97,-113.25 c 0.9825,-1.76942 2.0377,-3.50767 0.75,-6.25 -1.0763,-2.99396 -5.7806,-4.72044 -8,-4.5 h -20.25 c -3.2609,-0.68112 -5.0669,-4.78416 -2.875,-7.25 l 45.125,-53.250001 z"
       id="path4528"
       inkscape:connector-curvature="0"
       sodipodi:nodetypes="cccccccccccccc" />
  </g>
</svg>
